<svg width="25" height="25" viewBox="0 0 25 25" fill="none" xmlns="http://www.w3.org/2000/svg">
    <path
        d="M9 0H2.25C1.65326 0 1.08097 0.237053 0.65901 0.65901C0.237053 1.08097 0 1.65326 0 2.25V9C0 9.59674 0.237053 10.169 0.65901 10.591C1.08097 11.0129 1.65326 11.25 2.25 11.25H9C9.59674 11.25 10.169 11.0129 10.591 10.591C11.0129 10.169 11.25 9.59674 11.25 9V2.25C11.25 1.65326 11.0129 1.08097 10.591 0.65901C10.169 0.237053 9.59674 0 9 0ZM9 9H2.25V2.25H9V9ZM22.5 0H15.75C15.1533 0 14.581 0.237053 14.159 0.65901C13.7371 1.08097 13.5 1.65326 13.5 2.25V9C13.5 9.59674 13.7371 10.169 14.159 10.591C14.581 11.0129 15.1533 11.25 15.75 11.25H22.5C23.0967 11.25 23.669 11.0129 24.091 10.591C24.5129 10.169 24.75 9.59674 24.75 9V2.25C24.75 1.65326 24.5129 1.08097 24.091 0.65901C23.669 0.237053 23.0967 0 22.5 0ZM22.5 9H15.75V2.25H22.5V9ZM9 13.5H2.25C1.65326 13.5 1.08097 13.7371 0.65901 14.159C0.237053 14.581 0 15.1533 0 15.75V22.5C0 23.0967 0.237053 23.669 0.65901 24.091C1.08097 24.5129 1.65326 24.75 2.25 24.75H9C9.59674 24.75 10.169 24.5129 10.591 24.091C11.0129 23.669 11.25 23.0967 11.25 22.5V15.75C11.25 15.1533 11.0129 14.581 10.591 14.159C10.169 13.7371 9.59674 13.5 9 13.5ZM9 22.5H2.25V15.75H9V22.5ZM22.5 13.5H15.75C15.1533 13.5 14.581 13.7371 14.159 14.159C13.7371 14.581 13.5 15.1533 13.5 15.75V22.5C13.5 23.0967 13.7371 23.669 14.159 24.091C14.581 24.5129 15.1533 24.75 15.75 24.75H22.5C23.0967 24.75 23.669 24.5129 24.091 24.091C24.5129 23.669 24.75 23.0967 24.75 22.5V15.75C24.75 15.1533 24.5129 14.581 24.091 14.159C23.669 13.7371 23.0967 13.5 22.5 13.5ZM22.5 22.5H15.75V15.75H22.5V22.5Z"
        fill="#F36D36" />
</svg>