<svg width="32" height="23" viewBox="0 0 32 23" fill="none" xmlns="http://www.w3.org/2000/svg">
    <path
        d="M30.375 7.875C30.6734 7.875 30.9595 7.75647 31.1705 7.54549C31.3815 7.33452 31.5 7.04837 31.5 6.75V2.25C31.5 1.65326 31.2629 1.08097 30.841 0.65901C30.419 0.237053 29.8467 0 29.25 0H2.25C1.65326 0 1.08097 0.237053 0.65901 0.65901C0.237053 1.08097 0 1.65326 0 2.25V6.75C0 7.04837 0.118526 7.33452 0.329505 7.54549C0.540483 7.75647 0.826631 7.875 1.125 7.875C2.02011 7.875 2.87855 8.23058 3.51149 8.86351C4.14442 9.49645 4.5 10.3549 4.5 11.25C4.5 12.1451 4.14442 13.0036 3.51149 13.6365C2.87855 14.2694 2.02011 14.625 1.125 14.625C0.826631 14.625 0.540483 14.7435 0.329505 14.9545C0.118526 15.1655 0 15.4516 0 15.75V20.25C0 20.8467 0.237053 21.419 0.65901 21.841C1.08097 22.2629 1.65326 22.5 2.25 22.5H29.25C29.8467 22.5 30.419 22.2629 30.841 21.841C31.2629 21.419 31.5 20.8467 31.5 20.25V15.75C31.5 15.4516 31.3815 15.1655 31.1705 14.9545C30.9595 14.7435 30.6734 14.625 30.375 14.625C29.4799 14.625 28.6214 14.2694 27.9885 13.6365C27.3556 13.0036 27 12.1451 27 11.25C27 10.3549 27.3556 9.49645 27.9885 8.86351C28.6214 8.23058 29.4799 7.875 30.375 7.875ZM2.25 16.7625C3.52157 16.5043 4.66478 15.8144 5.48592 14.8098C6.30707 13.8052 6.75564 12.5475 6.75564 11.25C6.75564 9.95247 6.30707 8.69485 5.48592 7.69021C4.66478 6.68557 3.52157 5.9957 2.25 5.7375V2.25H10.125V20.25H2.25V16.7625ZM29.25 16.7625V20.25H12.375V2.25H29.25V5.7375C27.9784 5.9957 26.8352 6.68557 26.0141 7.69021C25.1929 8.69485 24.7444 9.95247 24.7444 11.25C24.7444 12.5475 25.1929 13.8052 26.0141 14.8098C26.8352 15.8144 27.9784 16.5043 29.25 16.7625Z"
        fill="#F36D36" />
</svg>