<svg width="25" height="30" viewBox="0 0 25 30" fill="none" xmlns="http://www.w3.org/2000/svg">
    <path
        d="M24.4209 5.95406L18.7959 0.329063C18.6914 0.224624 18.5673 0.141808 18.4307 0.0853469C18.2941 0.0288853 18.1478 -0.000115859 18 3.47848e-07H6.75C6.15326 3.47848e-07 5.58097 0.237053 5.15901 0.65901C4.73705 1.08097 4.5 1.65326 4.5 2.25V4.5H2.25C1.65326 4.5 1.08097 4.73705 0.65901 5.15901C0.237053 5.58097 0 6.15326 0 6.75V27C0 27.5967 0.237053 28.169 0.65901 28.591C1.08097 29.0129 1.65326 29.25 2.25 29.25H18C18.5967 29.25 19.169 29.0129 19.591 28.591C20.0129 28.169 20.25 27.5967 20.25 27V24.75H22.5C23.0967 24.75 23.669 24.5129 24.091 24.091C24.5129 23.669 24.75 23.0967 24.75 22.5V6.75C24.7501 6.60222 24.7211 6.45586 24.6647 6.31929C24.6082 6.18273 24.5254 6.05862 24.4209 5.95406ZM18 27H2.25V6.75H13.0345L18 11.7155V23.6025C18 23.6109 18 23.618 18 23.625C18 23.632 18 23.6391 18 23.6475V27ZM22.5 22.5H20.25V11.25C20.2501 11.1022 20.2211 10.9559 20.1647 10.8193C20.1082 10.6827 20.0254 10.5586 19.9209 10.4541L14.2959 4.82906C14.1914 4.72462 14.0673 4.64181 13.9307 4.58535C13.7941 4.52889 13.6478 4.49988 13.5 4.5H6.75V2.25H17.5345L22.5 7.21547V22.5ZM14.625 18C14.625 18.2984 14.5065 18.5845 14.2955 18.7955C14.0845 19.0065 13.7984 19.125 13.5 19.125H6.75C6.45163 19.125 6.16548 19.0065 5.95451 18.7955C5.74353 18.5845 5.625 18.2984 5.625 18C5.625 17.7016 5.74353 17.4155 5.95451 17.2045C6.16548 16.9935 6.45163 16.875 6.75 16.875H13.5C13.7984 16.875 14.0845 16.9935 14.2955 17.2045C14.5065 17.4155 14.625 17.7016 14.625 18ZM14.625 22.5C14.625 22.7984 14.5065 23.0845 14.2955 23.2955C14.0845 23.5065 13.7984 23.625 13.5 23.625H6.75C6.45163 23.625 6.16548 23.5065 5.95451 23.2955C5.74353 23.0845 5.625 22.7984 5.625 22.5C5.625 22.2016 5.74353 21.9155 5.95451 21.7045C6.16548 21.4935 6.45163 21.375 6.75 21.375H13.5C13.7984 21.375 14.0845 21.4935 14.2955 21.7045C14.5065 21.9155 14.625 22.2016 14.625 22.5Z"
        fill="#F36D36" />
</svg>