<svg width="21" height="21" viewBox="0 0 21 21" fill="none" xmlns="http://www.w3.org/2000/svg">
    <path
        d="M11.3281 15.2344C11.3281 15.4661 11.2594 15.6927 11.1306 15.8854C11.0019 16.0781 10.8188 16.2283 10.6047 16.317C10.3906 16.4057 10.155 16.4289 9.92763 16.3837C9.70031 16.3385 9.4915 16.2269 9.32761 16.063C9.16372 15.8991 9.05211 15.6903 9.0069 15.463C8.96168 15.2357 8.98489 15.0001 9.07358 14.7859C9.16228 14.5718 9.31248 14.3888 9.5052 14.26C9.69791 14.1312 9.92448 14.0625 10.1563 14.0625C10.4671 14.0625 10.7651 14.186 10.9849 14.4057C11.2047 14.6255 11.3281 14.9236 11.3281 15.2344ZM10.1563 4.6875C8.00196 4.6875 6.25 6.26465 6.25 8.20312V8.59375C6.25 8.80095 6.33231 8.99966 6.47883 9.14618C6.62534 9.29269 6.82405 9.375 7.03125 9.375C7.23845 9.375 7.43717 9.29269 7.58368 9.14618C7.73019 8.99966 7.8125 8.80095 7.8125 8.59375V8.20312C7.8125 7.12891 8.86426 6.25 10.1563 6.25C11.4482 6.25 12.5 7.12891 12.5 8.20312C12.5 9.27734 11.4482 10.1562 10.1563 10.1562C9.94905 10.1562 9.75034 10.2386 9.60383 10.3851C9.45731 10.5316 9.375 10.7303 9.375 10.9375V11.7188C9.375 11.926 9.45731 12.1247 9.60383 12.2712C9.75034 12.4177 9.94905 12.5 10.1563 12.5C10.3635 12.5 10.5622 12.4177 10.7087 12.2712C10.8552 12.1247 10.9375 11.926 10.9375 11.7188V11.6484C12.7188 11.3213 14.0625 9.90039 14.0625 8.20312C14.0625 6.26465 12.3106 4.6875 10.1563 4.6875ZM20.3125 10.1562C20.3125 12.165 19.7169 14.1286 18.6009 15.7988C17.4849 17.4689 15.8987 18.7707 14.0429 19.5394C12.1871 20.3081 10.145 20.5092 8.17487 20.1173C6.20475 19.7255 4.39508 18.7582 2.9747 17.3378C1.55432 15.9174 0.587035 14.1078 0.195154 12.1376C-0.196727 10.1675 0.00440055 8.12543 0.773103 6.26962C1.54181 4.41381 2.84356 2.82762 4.51374 1.71164C6.18393 0.595654 8.14754 0 10.1563 0C12.849 0.00284357 15.4306 1.07379 17.3347 2.97784C19.2387 4.88189 20.3097 7.46352 20.3125 10.1562ZM18.75 10.1562C18.75 8.45657 18.246 6.79505 17.3017 5.38182C16.3574 3.96858 15.0152 2.8671 13.4449 2.21666C11.8746 1.56622 10.1467 1.39603 8.4797 1.72763C6.81267 2.05922 5.28141 2.87769 4.07956 4.07955C2.8777 5.28141 2.05922 6.81267 1.72763 8.47969C1.39604 10.1467 1.56622 11.8746 2.21666 13.4449C2.86711 15.0152 3.96859 16.3574 5.38182 17.3017C6.79506 18.246 8.45657 18.75 10.1563 18.75C12.4347 18.7474 14.619 17.8412 16.2301 16.2301C17.8412 14.619 18.7474 12.4347 18.75 10.1562Z"
        fill="#257F91" />
</svg>