<svg width="30" height="27" viewBox="0 0 30 27" fill="none" xmlns="http://www.w3.org/2000/svg">
    <path
        d="M29.25 9C29.2506 8.8954 29.2364 8.79125 29.2078 8.69063L27.1898 1.63125C27.0542 1.16285 26.7707 0.750886 26.3816 0.456882C25.9926 0.162877 25.5189 0.0026057 25.0312 0H4.21875C3.73111 0.0026057 3.2574 0.162877 2.86835 0.456882C2.4793 0.750886 2.19579 1.16285 2.06016 1.63125L0.0435946 8.69063C0.014544 8.79118 -0.000132668 8.89534 9.03542e-07 9V11.25C9.03542e-07 12.1233 0.203317 12.9845 0.593848 13.7656C0.984379 14.5466 1.5514 15.226 2.25 15.75V25.875C2.25 26.1734 2.36853 26.4595 2.57951 26.6705C2.79048 26.8815 3.07663 27 3.375 27H25.875C26.1734 27 26.4595 26.8815 26.6705 26.6705C26.8815 26.4595 27 26.1734 27 25.875V15.75C27.6986 15.226 28.2656 14.5466 28.6562 13.7656C29.0467 12.9845 29.25 12.1233 29.25 11.25V9ZM4.21875 2.25H25.0312L26.6372 7.875H2.61703L4.21875 2.25ZM11.25 10.125H18V11.25C18 12.1451 17.6444 13.0036 17.0115 13.6365C16.3786 14.2694 15.5201 14.625 14.625 14.625C13.7299 14.625 12.8715 14.2694 12.2385 13.6365C11.6056 13.0036 11.25 12.1451 11.25 11.25V10.125ZM9 10.125V11.25C8.9998 11.8304 8.84994 12.4009 8.56489 12.9064C8.27985 13.412 7.86926 13.8355 7.37278 14.136C6.87629 14.4366 6.31069 14.604 5.73061 14.6222C5.15053 14.6403 4.57556 14.5086 4.06125 14.2397C3.98299 14.1788 3.89691 14.1286 3.80531 14.0906C3.3287 13.7855 2.93646 13.3654 2.66468 12.8691C2.3929 12.3727 2.2503 11.8159 2.25 11.25V10.125H9ZM24.75 24.75H4.5V16.7625C4.87035 16.8372 5.2472 16.8748 5.625 16.875C6.49825 16.875 7.35952 16.6717 8.14058 16.2812C8.92164 15.8906 9.60105 15.3236 10.125 14.625C10.649 15.3236 11.3284 15.8906 12.1094 16.2812C12.8905 16.6717 13.7517 16.875 14.625 16.875C15.4983 16.875 16.3595 16.6717 17.1406 16.2812C17.9216 15.8906 18.601 15.3236 19.125 14.625C19.649 15.3236 20.3284 15.8906 21.1094 16.2812C21.8905 16.6717 22.7517 16.875 23.625 16.875C24.0028 16.8748 24.3796 16.8372 24.75 16.7625V24.75ZM25.4433 14.0906C25.3529 14.1287 25.2678 14.1783 25.1902 14.2383C24.6759 14.5075 24.1009 14.6395 23.5207 14.6215C22.9406 14.6036 22.3748 14.4364 21.8782 14.1359C21.3815 13.8355 20.9708 13.4121 20.6855 12.9065C20.4003 12.401 20.2503 11.8304 20.25 11.25V10.125H27V11.25C26.9995 11.816 26.8567 12.3729 26.5847 12.8693C26.3127 13.3657 25.9202 13.7857 25.4433 14.0906Z"
        fill="#F36D36" />
</svg>