<svg width="32" height="30" viewBox="0 0 32 30" fill="none" xmlns="http://www.w3.org/2000/svg">
    <mask id="mask0_387_59" style="mask-type:luminance" maskUnits="userSpaceOnUse" x="0" y="0"
        width="32" height="30">
        <path d="M0 0H31.5V29.25H0V0Z" fill="white" />
    </mask>
    <g mask="url(#mask0_387_59)">
        <path
            d="M19.9094 17.4342C19.9094 18.4806 19.4962 19.4841 18.7607 20.224C18.0252 20.964 17.0277 21.3796 15.9876 21.3796H15.4279V22.5071C15.4279 22.8062 15.3098 23.0929 15.0997 23.3044C14.8895 23.5158 14.6044 23.6346 14.3072 23.6346C14.01 23.6346 13.7249 23.5158 13.5147 23.3044C13.3045 23.0929 13.1865 22.8062 13.1865 22.5071V21.3796H10.945C10.6478 21.3796 10.3627 21.2609 10.1525 21.0494C9.94234 20.838 9.82426 20.5512 9.82426 20.2522C9.82426 19.9531 9.94234 19.6664 10.1525 19.4549C10.3627 19.2435 10.6478 19.1247 10.945 19.1247H15.9876C16.4332 19.1247 16.8606 18.9466 17.1758 18.6295C17.4909 18.3125 17.6679 17.8825 17.6679 17.4342C17.6679 16.9858 17.4909 16.5559 17.1758 16.2388C16.8606 15.9218 16.4332 15.7437 15.9876 15.7437H12.6254C11.5852 15.7437 10.5877 15.328 9.85221 14.5881C9.11672 13.8482 8.70353 12.8447 8.70353 11.7983C8.70353 10.7519 9.11672 9.74831 9.85221 9.0084C10.5877 8.26848 11.5852 7.8528 12.6254 7.8528H13.185V6.72532C13.185 6.42629 13.3031 6.13951 13.5133 5.92807C13.7234 5.71663 14.0085 5.59784 14.3057 5.59784C14.603 5.59784 14.888 5.71663 15.0982 5.92807C15.3084 6.13951 15.4265 6.42629 15.4265 6.72532V7.8528H17.6679C17.9652 7.8528 18.2502 7.97159 18.4604 8.18303C18.6706 8.39448 18.7887 8.68126 18.7887 8.98028C18.7887 9.27931 18.6706 9.56609 18.4604 9.77753C18.2502 9.98898 17.9652 10.1078 17.6679 10.1078H12.6254C12.1795 10.1078 11.7519 10.2859 11.4366 10.6031C11.1214 10.9203 10.9443 11.3504 10.9443 11.799C10.9443 12.2475 11.1214 12.6777 11.4366 12.9949C11.7519 13.312 12.1795 13.4902 12.6254 13.4902H15.9876C17.0277 13.4902 18.0252 13.9059 18.7607 14.6458C19.4962 15.3857 19.9094 16.3893 19.9094 17.4357"
            fill="#F36D36" />
        <path
            d="M31.5002 3.65528V10.9685C31.5002 11.2917 31.3726 11.6016 31.1455 11.83C30.9184 12.0585 30.6103 12.1869 30.2891 12.1869H23.027C22.7058 12.1869 22.3977 12.0585 22.1706 11.83C21.9435 11.6016 21.8159 11.2917 21.8159 10.9685C21.8159 10.6454 21.9435 10.3355 22.1706 10.107C22.3977 9.8785 22.7058 9.75013 23.027 9.75013H27.1762L23.1421 6.0378L23.1042 6.00115C21.4204 4.30765 19.2778 3.15084 16.9443 2.67522C14.6107 2.19961 12.1896 2.42628 9.9833 3.32693C7.77705 4.22757 5.88349 5.76225 4.53918 7.73925C3.19487 9.71625 2.45941 12.0479 2.42468 14.443C2.38995 16.838 3.05748 19.1903 4.34389 21.2059C5.6303 23.2215 7.47856 24.8111 9.65776 25.7761C11.837 26.7411 14.2505 27.0388 16.5969 26.6318C18.9432 26.2249 21.1184 25.1315 22.8506 23.4881C23.0863 23.2786 23.3936 23.1694 23.7077 23.1835C24.0219 23.1976 24.3183 23.3339 24.5344 23.5637C24.7506 23.7935 24.8695 24.0988 24.8661 24.4151C24.8628 24.7315 24.7374 25.0341 24.5164 25.2592C21.8235 27.8291 18.2509 29.2581 14.5391 29.2501H14.3395C11.9581 29.2178 9.62108 28.5974 7.53387 27.4435C5.44666 26.2896 3.67317 24.6375 2.36932 22.6326C1.06546 20.6276 0.271166 18.331 0.056253 15.9449C-0.15866 13.5587 0.212392 11.156 1.13679 8.94786C2.06119 6.73976 3.51063 4.79392 5.35768 3.28141C7.20474 1.76889 9.39286 0.736007 11.7297 0.273564C14.0665 -0.18888 16.4805 -0.0667254 18.7594 0.629289C21.0383 1.3253 23.1123 2.57386 24.7992 4.26521L29.0781 8.196V3.65089C29.0781 3.32756 29.2057 3.01747 29.433 2.78884C29.6603 2.56021 29.9685 2.43177 30.2899 2.43177C30.6113 2.43177 30.9195 2.56021 31.1468 2.78884C31.374 3.01747 31.5017 3.32756 31.5017 3.65089"
            fill="#F36D36" />
    </g>
</svg>